<svg xmlns="http://www.w3.org/2000/svg" width="1200" height="630" viewBox="0 0 1200 630">
  <defs>
    <linearGradient id="bg" x1="0%" y1="0%" x2="100%" y2="100%">
      <stop offset="0%" stop-color="#0e0b08"/>
      <stop offset="100%" stop-color="#1e1508"/>
    </linearGradient>
    <linearGradient id="goldH" x1="0%" y1="0%" x2="0%" y2="100%">
      <stop offset="0%" stop-color="#fff0a0"/>
      <stop offset="40%" stop-color="#ffcc55"/>
      <stop offset="100%" stop-color="#a06010"/>
    </linearGradient>
    <linearGradient id="goldH2" x1="0%" y1="0%" x2="0%" y2="100%">
      <stop offset="0%" stop-color="#ffdd88"/>
      <stop offset="100%" stop-color="#885510"/>
    </linearGradient>
    <radialGradient id="spotlight" cx="50%" cy="40%" r="60%">
      <stop offset="0%" stop-color="#cc8800" stop-opacity="0.25"/>
      <stop offset="100%" stop-color="#000000" stop-opacity="0"/>
    </radialGradient>
    <filter id="glow">
      <feGaussianBlur stdDeviation="6" result="blur"/>
      <feMerge><feMergeNode in="blur"/><feMergeNode in="SourceGraphic"/></feMerge>
    </filter>
  </defs>
  <rect width="1200" height="630" fill="url(#bg)"/>
  <rect width="1200" height="630" fill="url(#spotlight)"/>
  <g opacity="0.07" stroke="#cc9944" stroke-width="0.8">
    <line x1="0" y1="630" x2="600" y2="420"/><line x1="200" y1="630" x2="600" y2="420"/>
    <line x1="400" y1="630" x2="600" y2="420"/><line x1="600" y1="630" x2="600" y2="420"/>
    <line x1="800" y1="630" x2="600" y2="420"/><line x1="1000" y1="630" x2="600" y2="420"/>
    <line x1="1200" y1="630" x2="600" y2="420"/>
    <line x1="0" y1="540" x2="1200" y2="540"/><line x1="0" y1="580" x2="1200" y2="580"/>
    <line x1="0" y1="610" x2="1200" y2="610"/>
  </g>
  <rect x="18" y="18" width="1164" height="594" rx="14" fill="none" stroke="#7a5520" stroke-width="1" opacity="0.6"/>
  <rect x="24" y="24" width="1152" height="582" rx="11" fill="none" stroke="#cc9944" stroke-width="0.5" opacity="0.3"/>
  <text x="600" y="148" text-anchor="middle" font-family="Arial, Helvetica, sans-serif" font-size="22" font-weight="300" fill="#cc9944" letter-spacing="18" opacity="0.85">BRAZILIAN</text>
  <text x="600" y="310" text-anchor="middle" font-family="Georgia, 'Times New Roman', serif" font-size="165" font-weight="bold" fill="url(#goldH)" letter-spacing="-4" filter="url(#glow)">ZOUK</text>
  <line x1="280" y1="338" x2="920" y2="338" stroke="#cc9944" stroke-width="0.8" opacity="0.5"/>
  <text x="600" y="384" text-anchor="middle" font-family="Arial, Helvetica, sans-serif" font-size="38" font-weight="700" fill="url(#goldH2)" letter-spacing="20">3D TRAINER</text>
  <text x="600" y="440" text-anchor="middle" font-family="Arial, Helvetica, sans-serif" font-size="17" font-weight="300" fill="#886633" letter-spacing="4">INTERACTIVE DANCE MOVEMENT VISUALIZER</text>
  <text x="600" y="570" text-anchor="middle" font-family="Arial, Helvetica, sans-serif" font-size="15" font-weight="300" fill="#5a4020" letter-spacing="3">by Avi Moraly</text>
  <text x="60" y="590" font-family="Georgia, serif" font-size="42" font-weight="bold" fill="#cc9944" opacity="0.06">Z</text>
  <text x="1100" y="590" font-family="Georgia, serif" font-size="42" font-weight="bold" fill="#cc9944" opacity="0.06">Z</text>
</svg>
